<?xml version="1.0" encoding="UTF-8"?>
<!DOCTYPE svg PUBLIC "-//W3C//DTD SVG 1.1//EN" "http://www.w3.org/Graphics/SVG/1.1/DTD/svg11.dtd">
<svg version="1.1" xmlns="http://www.w3.org/2000/svg" xmlns:xlink="http://www.w3.org/1999/xlink" x="0" y="0" width="200" height="38" viewBox="0, 0, 200, 38">
  <g id="Layer_1">
    <path d="M50.135,19.884 C50.135,22.143 51.764,23.692 53.812,23.692 C55.835,23.692 57.568,22.221 57.568,19.884 C57.568,17.625 55.835,16.102 53.812,16.102 C51.764,16.102 50.135,17.546 50.135,19.884 M60.983,8.012 L60.983,26.371 L57.989,26.371 L57.778,24.585 C56.78,26.135 55.178,26.66 53.602,26.66 C49.794,26.66 46.931,24.139 46.931,19.884 C46.931,15.419 49.741,13.108 53.523,13.108 C54.889,13.108 57.017,13.843 57.778,15.182 L57.778,8.012 z" fill="#D61E39"/>
    <path d="M73,18.334 C72.79,16.654 71.477,15.813 69.638,15.813 C67.905,15.813 66.486,16.654 66.014,18.334 z M65.961,20.987 C66.171,22.589 67.563,23.745 69.822,23.745 C71.004,23.745 72.554,23.298 73.289,22.537 L75.338,24.559 C73.972,25.978 71.739,26.66 69.77,26.66 C65.305,26.66 62.652,23.903 62.652,19.753 C62.652,15.813 65.331,12.976 69.533,12.976 C73.867,12.976 76.572,15.655 76.073,20.987 z" fill="#D61E39"/>
    <path d="M90.643,13.344 L85.127,26.371 L81.66,26.371 L76.118,13.344 L79.611,13.344 L81.397,17.625 L83.393,23.088 L85.363,17.678 L87.149,13.344 z" fill="#D61E39"/>
    <path d="M92.399,26.319 L95.603,26.319 L95.603,13.318 L92.399,13.318 z M92.399,13.318 M95.892,9.72 C95.892,12.215 92.11,12.215 92.11,9.72 C92.11,7.224 95.892,7.224 95.892,9.72" fill="#D61E39"/>
    <path d="M101.464,26.319 L98.286,26.319 L98.286,7.96 L101.464,7.96 z" fill="#D61E39"/>
    <path d="M120.427,19.858 C120.427,17.835 119.061,16.181 116.75,16.181 C114.439,16.181 113.073,17.835 113.073,19.858 C113.073,21.88 114.57,23.535 116.75,23.535 C118.93,23.535 120.427,21.88 120.427,19.858 M109.58,31.729 L109.58,13.37 L112.574,13.37 L112.784,15.156 C113.782,13.712 115.515,13.081 116.986,13.081 C120.978,13.081 123.631,16.049 123.631,19.858 C123.631,23.64 121.241,26.634 117.091,26.634 C115.725,26.634 113.703,26.214 112.784,24.796 L112.784,31.729 z" fill="#D61E39"/>
    <path d="M128.284,19.831 C128.284,22.3 129.991,23.771 132.119,23.771 C137.161,23.771 137.161,15.918 132.119,15.918 C129.991,15.918 128.284,17.363 128.284,19.831 M136.058,13.37 L139.131,13.37 L139.131,26.319 L136.111,26.319 L135.953,24.428 C135.218,25.951 133.195,26.687 131.751,26.713 C127.916,26.739 125.079,24.375 125.079,19.831 C125.079,15.366 128.047,13.029 131.83,13.055 C133.563,13.055 135.218,13.869 135.953,15.156 z" fill="#D61E39"/>
    <path d="M151.164,26.319 L151.164,19.542 C151.164,17.573 150.088,16.076 148.039,16.076 C146.069,16.076 144.73,17.73 144.73,19.7 L144.73,26.319 L141.552,26.319 L141.552,13.344 L144.414,13.344 L144.624,15.104 C145.938,13.817 147.251,13.16 148.879,13.16 C151.926,13.16 154.368,15.445 154.368,19.516 L154.368,26.319 z" fill="#D61E39"/>
    <path d="M161.093,9.72 L161.093,13.397 L164.665,13.397 L164.665,16.154 L161.067,16.154 L161.067,21.749 C161.067,22.983 161.749,23.587 162.747,23.587 C163.246,23.587 163.824,23.43 164.297,23.193 L165.19,25.925 C164.271,26.293 163.509,26.45 162.537,26.476 C159.727,26.582 157.889,24.979 157.889,21.749 L157.889,16.154 L155.472,16.154 L155.472,13.397 L157.889,13.397 L157.889,10.061 z" fill="#D61E39"/>
    <path d="M167.055,26.319 L170.259,26.319 L170.259,13.318 L167.055,13.318 z M167.055,13.318 M170.548,9.72 C170.548,12.215 166.766,12.215 166.766,9.72 C166.766,7.224 170.548,7.224 170.548,9.72" fill="#D61E39"/>
    <path d="M182.918,18.334 C182.708,16.653 181.395,15.813 179.557,15.813 C177.823,15.813 176.405,16.653 175.932,18.334 z M175.88,20.987 C176.09,22.589 177.482,23.745 179.74,23.745 C180.922,23.745 182.472,23.298 183.207,22.537 L185.256,24.559 C183.89,25.978 181.658,26.66 179.688,26.66 C175.223,26.66 172.57,23.903 172.57,19.753 C172.57,15.813 175.249,12.976 179.451,12.976 C183.785,12.976 186.491,15.655 185.991,20.987 z" fill="#D61E39"/>
    <path d="M196.918,16.811 C195.999,15.944 194.948,15.655 193.714,15.655 C192.19,15.655 191.35,16.128 191.35,16.942 C191.35,17.783 192.111,18.255 193.766,18.361 C196.209,18.518 199.308,19.07 199.308,22.51 C199.308,24.795 197.443,26.765 193.74,26.765 C191.691,26.765 189.643,26.424 187.751,24.454 L189.327,22.169 C190.247,23.193 192.348,23.955 193.792,23.981 C195.001,24.008 196.13,23.377 196.13,22.432 C196.13,21.539 195.394,21.171 193.556,21.066 C191.113,20.882 188.198,19.989 188.198,17.047 C188.198,14.053 191.297,13.003 193.661,13.003 C195.683,13.003 197.207,13.397 198.704,14.71 z" fill="#D61E39"/>
    <path d="M5.804,9.366 C4.38,9.882 3.072,10.709 1.968,11.813 C1.825,11.956 1.686,12.103 1.557,12.255 C0.66,8.232 2.115,3.937 5.926,0.828 C5.934,0.823 5.939,0.815 5.947,0.81 C6.38,0.46 6.982,0.966 6.722,1.46 C5.397,3.962 5.09,6.738 5.804,9.366" fill="#D61E39"/>
    <path d="M35.833,12.259 C35.703,12.107 35.565,11.96 35.418,11.813 C34.313,10.709 33.006,9.882 31.581,9.366 C32.296,6.738 31.993,3.962 30.668,1.46 C30.408,0.966 31.01,0.459 31.443,0.81 C31.447,0.814 31.456,0.823 31.465,0.827 C35.275,3.937 36.73,8.236 35.833,12.259" fill="#D61E39"/>
    <path d="M27.994,10.469 C25.75,10.469 23.506,11.325 21.794,13.037 L18.88,15.952 C18.777,16.054 18.611,16.054 18.508,15.952 L15.594,13.037 C13.882,11.325 11.638,10.469 9.394,10.469 C7.137,10.469 4.881,11.335 3.165,13.066 C-0.263,16.525 -0.066,22.179 3.378,25.622 L12.494,34.738 L12.494,34.738 C14.206,36.45 16.45,37.306 18.694,37.306 C20.938,37.306 23.182,36.45 24.894,34.738 L34.195,25.438 C37.619,22.013 37.619,16.462 34.195,13.037 L34.195,13.037 C32.483,11.325 30.239,10.469 27.994,10.469 M27.994,13.933 C29.411,13.933 30.743,14.485 31.745,15.487 C33.813,17.555 33.813,20.92 31.745,22.988 L22.445,32.289 C21.443,33.291 20.111,33.842 18.694,33.842 C17.277,33.842 15.945,33.291 14.943,32.289 L5.643,22.988 C4.641,21.987 4.09,20.654 4.09,19.238 C4.09,17.821 4.641,16.489 5.643,15.487 C6.645,14.485 7.977,13.933 9.394,13.933 C10.811,13.933 12.143,14.485 13.145,15.487 L16.245,18.587 C16.921,19.263 17.808,19.602 18.694,19.602 C19.581,19.602 20.467,19.263 21.144,18.587 L24.244,15.487 C25.246,14.485 26.578,13.933 27.994,13.933" fill="#D61E39"/>
  </g>
</svg>
