<?xml version="1.0" standalone="no"?>
<!DOCTYPE svg PUBLIC "-//W3C//DTD SVG 20010904//EN"
 "http://www.w3.org/TR/2001/REC-SVG-20010904/DTD/svg10.dtd">
<svg version="1.0" xmlns="http://www.w3.org/2000/svg"
 width="918.000000pt" height="918.000000pt" viewBox="0 0 918.000000 918.000000"
 preserveAspectRatio="xMidYMid meet">
<metadata>
Created by potrace 1.11, written by Peter Selinger 2001-2013
</metadata>
<g transform="translate(0.000000,918.000000) scale(0.100000,-0.100000)"
fill="#000000" stroke="none">
<path d="M1391 9152 c-68 -46 -273 -234 -368 -339 -448 -493 -690 -994 -779
-1609 -33 -227 -23 -569 23 -832 l16 -93 121 119 c67 66 160 151 209 190 198
160 458 310 690 397 26 10 47 21 47 26 0 4 -11 54 -25 111 -39 168 -56 301
-62 508 -13 441 71 833 268 1250 38 80 69 156 69 169 0 38 -30 89 -65 111 -46
28 -94 26 -144 -8z"/>
<path d="M7633 9160 c-38 -23 -63 -67 -63 -110 0 -17 17 -65 39 -108 99 -197
189 -448 234 -652 47 -211 61 -339 61 -575 1 -234 -9 -333 -51 -535 -14 -69
-28 -136 -30 -150 -4 -24 2 -28 79 -59 320 -129 649 -350 891 -599 48 -49 89
-87 91 -83 6 9 34 181 47 286 14 119 14 443 0 575 -61 536 -278 1043 -638
1490 -148 184 -426 458 -528 521 -39 24 -92 24 -132 -1z"/>
<path d="M2030 6719 c-500 -51 -980 -279 -1334 -635 -325 -326 -525 -725 -603
-1199 -25 -153 -25 -504 0 -665 60 -384 204 -728 435 -1045 49 -67 383 -408
1316 -1344 688 -689 1292 -1287 1341 -1329 696 -586 1733 -666 2523 -194 229
137 226 134 1593 1501 1361 1360 1365 1365 1499 1585 106 177 195 389 244 585
55 214 61 269 61 551 0 282 -6 337 -61 551 -36 146 -78 260 -154 414 -317 652
-925 1098 -1650 1211 -171 27 -502 25 -670 -4 -326 -56 -606 -165 -870 -339
-162 -107 -254 -191 -685 -622 -346 -347 -404 -401 -429 -401 -26 0 -89 59
-465 433 -439 436 -525 512 -708 626 -248 154 -543 262 -833 306 -129 20 -422
27 -550 14z m410 -874 c232 -35 441 -123 623 -262 34 -26 274 -257 532 -513
399 -397 481 -474 545 -510 292 -170 658 -157 938 31 26 18 261 244 522 504
410 407 489 481 575 538 394 260 876 298 1304 101 255 -117 496 -353 625 -612
50 -99 102 -257 121 -367 20 -117 20 -333 0 -450 -34 -192 -123 -403 -238
-559 -40 -56 -453 -475 -1311 -1332 -1151 -1152 -1259 -1257 -1352 -1317 -224
-148 -433 -215 -699 -224 -300 -11 -601 84 -835 261 -130 99 -2572 2549 -2633
2642 -108 165 -168 309 -209 497 -30 144 -30 370 0 514 61 286 186 510 391
705 185 176 409 293 656 342 149 29 304 33 445 11z"/>
</g>
</svg>
